<?xml version="1.0" encoding="UTF-8"?>
<svg version="1.1" xmlns="http://www.w3.org/2000/svg" width="1024" height="1024">
<path d="M0 0 C337.92 0 675.84 0 1024 0 C1024 337.92 1024 675.84 1024 1024 C686.08 1024 348.16 1024 0 1024 C0 686.08 0 348.16 0 0 Z " fill="#FCFCFC" transform="translate(0,0)"/>
<path d="M0 0 C337.92 0 675.84 0 1024 0 C1024 337.92 1024 675.84 1024 1024 C686.08 1024 348.16 1024 0 1024 C0 686.08 0 348.16 0 0 Z M142 128 C141.14148438 128.72058594 140.28296875 129.44117188 139.3984375 130.18359375 C136.86340315 132.39313275 134.4177817 134.66308056 132 137 C131.31164062 137.66257813 130.62328125 138.32515625 129.9140625 139.0078125 C120.87721431 148.40184837 115.4160293 160.4325867 110.5625 172.375 C110.0675 173.58603394 110.0675 173.58603394 109.5625 174.8215332 C104.64076089 187.41804487 103.84364455 200.49131463 103.86857224 213.89954948 C103.8665196 214.94430006 103.86446697 215.98905064 103.86235213 217.06546032 C103.85671427 220.55340772 103.85813539 224.04131523 103.85955811 227.52926636 C103.85697263 230.0605461 103.85395896 232.59182544 103.8505547 235.12310421 C103.84334629 241.34208971 103.84078312 247.56106285 103.84022565 253.78005203 C103.83930913 261.23330511 103.83263309 268.68655031 103.82587883 276.13979999 C103.80984594 294.15075398 103.80391861 312.1617071 103.79913008 330.17266695 C103.79679139 338.69903022 103.79318844 347.22539282 103.7894347 355.75175556 C103.77660153 384.95900891 103.7658822 414.16626189 103.7624321 443.37351799 C103.76221047 445.20575212 103.76198868 447.03798624 103.76176675 448.87022037 C103.76154611 450.70678529 103.76132563 452.5433502 103.7611053 454.37991512 C103.76066276 458.06414914 103.76021564 461.74838316 103.75976562 465.43261719 C103.75965623 466.34608775 103.75954684 467.25955832 103.75943414 468.20070981 C103.75580484 497.809035 103.73988838 527.41733567 103.71657526 557.02565148 C103.69195162 588.35585162 103.67825808 619.68603777 103.67706418 651.01624787 C103.67689274 654.45882106 103.67667731 657.90139425 103.67642975 661.34396744 C103.67637398 662.1915776 103.67631821 663.03918775 103.67626075 663.91248307 C103.67511252 677.52328894 103.66410996 691.13406956 103.64954269 704.74486692 C103.63514082 718.43843279 103.63196149 732.13196647 103.63998267 745.82553785 C103.64442156 753.94850729 103.64064848 762.07137243 103.62474416 770.19432806 C103.61377151 776.27795174 103.6186896 782.36145798 103.62951604 788.44508626 C103.63146536 790.8926264 103.62843033 793.34017717 103.61967167 795.78770243 C103.51078764 828.29396362 108.02193444 859.68977612 130 885 C130.63421875 885.73476563 131.2684375 886.46953125 131.921875 887.2265625 C143.97823801 900.15881514 160.3724764 908.57469949 176.875 914.3125 C177.52049805 914.54291992 178.16599609 914.77333984 178.83105469 915.01074219 C195.27948157 920.38310607 212.19720235 920.43054564 229.30426025 920.3742218 C231.83419707 920.37696665 234.36413274 920.38102235 236.89406562 920.38626546 C242.36643149 920.394607 247.83867293 920.39375558 253.31103516 920.38453293 C261.44876724 920.37085634 269.58642937 920.37452364 277.7241667 920.38149153 C292.26200587 920.39338347 306.79980151 920.38835894 321.33763826 920.37621326 C334.05777541 920.36565901 346.77789776 920.36114007 359.49803925 920.36250877 C360.34321442 920.3625928 361.18838958 920.36267683 362.05917612 920.36276341 C365.49034684 920.36311568 368.92151755 920.3634997 372.35268826 920.36392899 C404.50672097 920.36788968 436.66072753 920.35519602 468.81475277 920.33440243 C497.36251104 920.31602774 525.91024426 920.31022227 554.45800781 920.31567383 C556.29174178 920.31602026 558.12547574 920.31636636 559.95920971 920.31671212 C560.86578766 920.31688311 561.7723656 920.31705411 562.7064156 920.31723029 C567.27031227 920.31808387 571.83420894 920.31890765 576.39810562 920.31969929 C577.29855648 920.31985637 578.19900734 920.32001345 579.12674459 920.32017529 C603.00671719 920.32416737 626.8866874 920.31868718 650.76665854 920.310188 C653.33677664 920.30928099 655.90689473 920.30837534 658.47701282 920.30747276 C660.18183787 920.30687166 661.88666291 920.30626304 663.59148795 920.30564686 C675.46283812 920.30143014 687.33418355 920.30084527 699.20553422 920.30275235 C714.50307708 920.30519769 729.80059456 920.301104 745.09813049 920.28554235 C753.18258943 920.27750725 761.26700611 920.27487938 769.35146754 920.2801847 C775.39369841 920.28352203 781.43586951 920.27636212 787.47809288 920.26515963 C789.91789378 920.26223677 792.35770151 920.26265723 794.79750064 920.26680271 C829.35397625 920.32017691 862.81041365 913.15309518 888.75 888.75 C914.3695475 861.61225709 920.48900135 828.74653524 920.38095093 792.66018677 C920.38441303 790.12627616 920.38918128 787.59236706 920.39513266 785.05846107 C920.40500314 779.57725513 920.40568328 774.09617074 920.39799118 768.61496353 C920.38658356 760.46375829 920.39247602 752.31262721 920.4016161 744.16142237 C920.41737008 729.59781318 920.41606134 715.03424359 920.40737936 700.47063068 C920.39981844 687.72415884 920.39786922 674.97770149 920.4014473 662.23122787 C920.40167645 661.38415076 920.40190561 660.53707365 920.40214171 659.66432753 C920.4030758 656.22533034 920.40403101 652.78633317 920.405021 649.347336 C920.41418874 617.11610188 920.40589262 584.88489291 920.38973031 552.65366267 C920.37549711 524.05213534 920.37676628 495.45064808 920.39111328 466.84912109 C920.40719707 434.67805392 920.41353587 402.50700897 920.40427649 370.33593833 C920.40331441 366.90276011 920.40237589 363.46958189 920.4014473 360.03640366 C920.40121006 359.19113473 920.40097283 358.3458658 920.40072841 357.47498266 C920.39732394 344.74155668 920.40129201 332.0081468 920.40888596 319.27472305 C920.41748352 304.78664434 920.41527731 290.29861125 920.39904372 275.81053819 C920.39026959 267.71398954 920.38960925 259.61753984 920.40098225 251.52099387 C920.40855406 245.45909656 920.40027381 239.39732581 920.38605852 233.33543609 C920.3827279 230.89552831 920.38436568 228.45560717 920.39168589 226.0157081 C920.46705604 198.78967185 916.67642631 177.92243818 903.5625 154 C902.92989258 152.84169678 902.29728516 151.68339355 901.64550781 150.48999023 C890.04375692 129.8515116 869.57715752 115.8202832 847 109 C832.50305368 105.17849974 818.35787796 102.84035308 803.35846806 102.86857224 C801.81496721 102.86549328 801.81496721 102.86549328 800.24028453 102.86235213 C796.7999124 102.85670772 793.35958063 102.85813621 789.91920471 102.85955811 C787.42448583 102.856973 784.92976737 102.85395944 782.43504947 102.8505547 C776.30267946 102.8433426 770.17032199 102.84078291 764.03794824 102.84022565 C756.68926532 102.83930956 749.34059039 102.83263475 741.99191093 102.82587883 C724.23323615 102.80984173 706.47456226 102.80391816 688.71588154 102.79913008 C680.31000483 102.79679184 671.90412879 102.79318894 663.49825261 102.7894347 C634.70728651 102.77660124 605.9163208 102.76588187 577.12535191 102.7624321 C575.31904733 102.76221047 573.51274276 102.76198868 571.70643818 102.76176675 C569.89584853 102.76154611 568.08525888 102.76132563 566.27466923 102.7611053 C562.6425041 102.76066275 559.01033896 102.76021564 555.37817383 102.75976562 C554.47761244 102.75965623 553.57705105 102.75954684 552.64919993 102.75943414 C523.45672826 102.75580452 494.26428145 102.73988701 465.0718193 102.71657526 C434.18619446 102.69195665 403.30058381 102.67825832 372.41494888 102.67706418 C369.02182543 102.67689273 365.62870198 102.67667731 362.23557854 102.67642975 C361.40013539 102.67637398 360.56469224 102.67631821 359.70393263 102.67626075 C346.28329245 102.67511209 332.86267786 102.66410587 319.44204631 102.64954269 C305.94218875 102.63514731 292.44236385 102.63195785 278.94250072 102.63998267 C270.93242636 102.64442458 262.92245772 102.64063624 254.91239734 102.62474416 C248.91632433 102.61378448 242.92037068 102.61868017 236.92429303 102.62951604 C234.50973277 102.63146776 232.09516177 102.62841906 229.68061657 102.61967167 C198.61197532 102.5143038 166.62224344 107.32209653 142 128 Z " fill="#FCFCFC" transform="translate(0,0)"/>
<path d="M0 0 C1.24879711 0.65880335 2.4954142 1.32174978 3.74023438 1.98803711 C5.1278052 2.71937664 6.51567502 3.4501491 7.90380859 4.18041992 C8.98900787 4.7533075 8.98900787 4.7533075 10.09613037 5.33776855 C53.22414616 28.03276205 97.17953798 37.7726442 145.83398438 29.45288086 C146.53990723 29.33541504 147.24583008 29.21794922 147.97314453 29.09692383 C165.74212732 26.0775592 181.65342649 20.25611968 197.83398438 12.45288086 C198.72714355 12.02217285 199.62030273 11.59146484 200.54052734 11.14770508 C203.22716781 9.84359007 205.90732783 8.5273579 208.58398438 7.20288086 C209.39327393 6.80302979 210.20256348 6.40317871 211.03637695 5.99121094 C214.885406 4.05567399 218.36759932 2.07118891 221.84960938 -0.46899414 C224.93438034 -2.43143843 226.66573274 -2.81174889 230.25585938 -2.07446289 C231.79471448 -1.60550042 233.32148529 -1.0951587 234.83398438 -0.54711914 C235.57583984 -0.29720215 236.31769531 -0.04728516 237.08203125 0.21020508 C257.27802538 7.34664487 275.80785974 17.52415371 292.83398438 30.45288086 C294.21650391 31.46995117 294.21650391 31.46995117 295.62695312 32.50756836 C309.97150284 43.58289512 323.66961373 57.44657365 333.83398438 72.45288086 C334.43098145 73.32396484 334.43098145 73.32396484 335.04003906 74.21264648 C357.21033068 106.89010355 366.89753391 144.07386211 367.07226562 183.24194336 C367.07634115 184.02383404 367.08041668 184.80572472 367.08461571 185.61130905 C367.10529917 189.74013741 367.11968329 193.86893416 367.12915039 197.99780273 C367.14025697 202.23185593 367.17475625 206.46538984 367.21432209 210.6992588 C367.24057255 213.98687655 367.248849 217.27437089 367.25243187 220.5620842 C367.25726566 222.12244604 367.26878668 223.68280359 367.28746986 225.24306107 C367.43332631 238.21536307 365.63708964 247.52109641 356.39648438 257.18725586 C347.54895352 265.0097679 337.51590959 267.80352023 325.95898438 267.64819336 C325.14905029 267.64536346 324.33911621 267.64253357 323.50463867 267.63961792 C320.94759604 267.62852801 318.39091903 267.60344538 315.83398438 267.57788086 C314.08789573 267.56783656 312.34180152 267.55871326 310.59570312 267.55053711 C306.34165853 267.52862552 302.08788318 267.49417468 297.83398438 267.45288086 C297.83033875 266.41384613 297.82669312 265.3748114 297.82293701 264.30429077 C297.78597117 254.5050209 297.72818106 244.70606481 297.65008163 234.90703392 C297.61059829 229.86940598 297.57841397 224.83195306 297.56298828 219.79418945 C297.54782741 214.93103879 297.51339184 210.06836928 297.46567535 205.20543289 C297.4508557 203.35157075 297.44294302 201.49763991 297.44210052 199.64371872 C297.43973086 197.04361626 297.41265217 194.44484349 297.37988281 191.8449707 C297.38491318 191.08108032 297.38994354 190.31718994 297.39512634 189.53015137 C297.29484392 184.37622271 296.13359164 181.39700578 292.83398438 177.45288086 C287.65107934 174.46274334 283.65934545 173.80561852 277.83398438 174.45288086 C271.99802454 177.25863078 271.30185333 179.38411018 267.83398438 185.45288086 C267.50398438 212.51288086 267.17398437 239.57288086 266.83398438 267.45288086 C163.87398437 267.45288086 60.91398437 267.45288086 -45.16601562 267.45288086 C-45.49601562 240.39288086 -45.82601562 213.33288086 -46.16601562 185.45288086 C-49.08546676 179.18870478 -49.08546676 179.18870478 -54.16601562 175.45288086 C-58.94321853 174.28654035 -62.85028224 174.01430306 -67.54101562 175.57788086 C-70.96683184 178.02489244 -73.28347805 180.68780571 -75.16601562 184.45288086 C-75.28839317 187.07612004 -75.35169317 189.67456817 -75.37133789 192.29907227 C-75.38123749 193.10891068 -75.39113708 193.91874908 -75.40133667 194.75312805 C-75.43298962 197.43686982 -75.45772406 200.1206293 -75.48242188 202.80444336 C-75.50298813 204.66247016 -75.52398451 206.52049225 -75.5453949 208.37850952 C-75.60064953 213.27425321 -75.65004383 218.17003936 -75.69824219 223.06585693 C-75.74843247 228.05948679 -75.80413143 233.05305481 -75.859375 238.04663086 C-75.96699804 247.8486614 -76.0684338 257.65074558 -76.16601562 267.45288086 C-81.53707921 267.52761737 -86.90783316 267.58175747 -92.27929688 267.61767578 C-94.10259278 267.63266575 -95.92585322 267.6530647 -97.74902344 267.67919922 C-113.06717998 267.89311652 -124.24671971 267.13526871 -136.16601562 256.45288086 C-145.38725235 246.36949599 -145.63584196 233.08499526 -145.59960938 220.10131836 C-145.60419201 218.63375615 -145.60950358 217.16619606 -145.61549377 215.69863892 C-145.62437511 212.63095366 -145.62206775 209.56352923 -145.61206055 206.49584961 C-145.60295046 203.40865739 -145.6096057 200.32222689 -145.63256836 197.23510742 C-146.02988288 143.56741274 -133.16774905 96.22923442 -97.16601562 55.45288086 C-96.44414062 54.60854492 -95.72226562 53.76420898 -94.97851562 52.89428711 C-91.34584258 48.68691384 -87.59140619 44.87171872 -83.33105469 41.29931641 C-81.18667055 39.47049624 -79.11729041 37.57712149 -77.04101562 35.67163086 C-72.33915483 31.4878735 -67.36456838 27.95673292 -62.10351562 24.51538086 C-61.18086914 23.90984375 -60.25822266 23.30430664 -59.30761719 22.68041992 C-56.60391332 20.92137238 -53.88929233 19.18144328 -51.16601562 17.45288086 C-50.46557129 17.00734863 -49.76512695 16.56181641 -49.04345703 16.1027832 C-13.07160422 -6.38762769 -13.07160422 -6.38762769 0 0 Z " fill="#FCFCFC" transform="translate(401.166015625,575.547119140625)"/>
<path d="M0 0 C2.5010626 -0.00346284 5.00212366 -0.00823158 7.50318158 -0.01418173 C12.90954595 -0.02404551 18.31578707 -0.02473741 23.72215271 -0.01704025 C31.76210678 -0.00562509 39.80198575 -0.01152894 47.84193942 -0.02066517 C62.20740232 -0.0364134 76.57282505 -0.03511272 90.93829173 -0.02642844 C103.51140781 -0.01886552 116.08450921 -0.01691921 128.65762711 -0.02049637 C129.49339958 -0.02072552 130.32917206 -0.02095468 131.19027097 -0.02119078 C134.58343002 -0.02212488 137.97658907 -0.02308009 141.3697481 -0.02407007 C173.16709409 -0.03323645 204.96441457 -0.02494386 236.76175662 -0.00877938 C264.9740888 0.00545363 293.18638034 0.00418452 321.39871216 -0.01016235 C353.13690759 -0.02624851 384.87508051 -0.03258362 416.61327946 -0.02332556 C420.00068163 -0.0223635 423.38808381 -0.02142497 426.77548599 -0.02049637 C428.02647069 -0.02014052 428.02647069 -0.02014052 429.30272781 -0.01977748 C441.8625087 -0.01637398 454.42227323 -0.02033927 466.98205185 -0.02793503 C481.27354776 -0.03653529 495.56499742 -0.0343207 509.85648762 -0.0180928 C517.84174234 -0.00932314 525.82689675 -0.00865174 533.81214874 -0.02003132 C539.79293341 -0.02760983 545.77359001 -0.01931366 551.75436701 -0.0051076 C554.15994257 -0.00178004 556.5655317 -0.00340769 558.97109841 -0.01073496 C590.21717513 -0.09854469 621.2507741 3.94615392 646.85037231 23.38095093 C647.39032837 23.7815271 647.93028442 24.18210327 648.48660278 24.59481812 C656.39347445 30.52780465 662.01162232 36.4654578 666.72390747 45.2930603 C668.06436152 47.77757765 669.46319549 50.22575131 670.86209106 52.67782593 C684.72967279 77.20002516 687.31361471 99.06337343 687.23805237 126.94781494 C687.24223314 129.48202662 687.24771471 132.01623643 687.25437218 134.55044281 C687.26575897 140.02616011 687.26799006 145.50175841 687.26182175 150.97748184 C687.25267348 159.12060745 687.26080821 167.2636547 687.27211299 175.40677434 C687.29171646 189.95693881 687.29413952 204.50706754 687.28891779 219.05724206 C687.28435014 231.79203305 687.28497282 244.52680995 687.29075813 257.26160049 C687.29151502 258.97373191 687.292271 260.68586332 687.29302608 262.39799473 C687.29417134 264.97841679 687.29532123 267.55883884 687.29648532 270.13926089 C687.30718051 294.1097376 687.31192561 318.08020965 687.30401516 342.05068779 C687.3035694 343.4042894 687.3035694 343.4042894 687.30311463 344.7852365 C687.30066601 352.11209002 687.29805427 359.43894348 687.2954305 366.76579694 C687.28532906 395.34082502 687.29368553 423.91579432 687.31692505 452.49081421 C687.3430294 484.63994302 687.35583724 516.78903647 687.3487373 548.93817627 C687.3480213 552.36967412 687.34734691 555.80117197 687.34669685 559.23266983 C687.34652704 560.07751091 687.34635724 560.92235199 687.34618228 561.79279432 C687.34388485 574.51384243 687.35182956 587.23485757 687.36498833 599.95589828 C687.37993582 614.43143718 687.38069425 628.90689907 687.36291742 643.38243638 C687.35339304 651.46971775 687.3547097 659.55681923 687.3721521 667.64408838 C687.38396106 673.7025642 687.37457423 679.76082111 687.35732973 685.81929161 C687.35358433 688.25513831 687.35644906 690.69100704 687.36694138 693.12683402 C687.51273951 729.5940185 679.11477228 761.90091549 652.85037231 788.38095093 C632.07956942 808.49510615 600.563665 817.56497295 572.23539066 817.51237869 C571.19711411 817.51443133 570.15883755 817.51648396 569.08909807 817.51859879 C565.61115977 817.52425169 562.13326129 817.52281365 558.65531921 817.52139282 C556.1360019 817.52397744 553.616685 817.52699087 551.09736866 817.53039622 C544.90030691 817.53761311 538.70325757 817.5401683 532.50619212 817.54072528 C525.08093466 817.54164083 517.65568512 817.54831405 510.23043107 817.5550721 C492.2857218 817.57111494 474.3410134 817.57703347 456.39629825 817.58182085 C447.90328778 817.58415856 439.41027799 817.5877614 430.91726804 817.59151623 C401.83122445 817.60435033 372.74518123 817.61506954 343.65913486 817.61851883 C341.83405014 817.61874046 340.00896541 817.61896224 338.18388068 817.61918418 C336.35444937 817.61940482 334.52501806 817.6196253 332.69558674 817.61984563 C329.02558362 817.62028817 325.35558051 817.62073529 321.68557739 817.6211853 C320.7756333 817.62129469 319.86568922 817.62140408 318.92817106 817.62151679 C289.43101583 817.62514647 259.93388519 817.64106389 230.43673937 817.66437567 C199.23319182 817.68899083 168.02965831 817.70269245 136.82610077 817.70388675 C133.39843523 817.70405819 129.9707697 817.70427362 126.54310417 817.70452118 C125.6991482 817.70457695 124.85519222 817.70463272 123.98566182 817.70469018 C110.42436451 817.70583916 96.86309251 817.71684813 83.30180374 817.73140823 C69.66181559 817.74579921 56.02185976 817.74899555 42.3818661 817.74096826 C34.2871592 817.73652424 26.19255688 817.74032323 18.0978638 817.75620676 C12.0405248 817.76715745 5.9833041 817.7622773 -0.07403947 817.75143489 C-2.51485659 817.74948149 -4.95568431 817.75253969 -7.39648657 817.76127926 C-24.00005814 817.81693888 -40.45618684 817.33823853 -56.27462769 811.69345093 C-57.00560669 811.43998901 -57.73658569 811.1865271 -58.48971558 810.92538452 C-85.37813866 801.26421386 -106.84076089 783.49025474 -119.18771362 757.51669312 C-126.69673175 740.84438586 -129.31728587 722.7385247 -129.27826214 704.59048271 C-129.28001518 703.545388 -129.28176821 702.50029328 -129.28357437 701.42352903 C-129.28821901 697.92843711 -129.28577282 694.43338708 -129.28334045 690.93829346 C-129.2852092 688.40431342 -129.28751016 685.87033367 -129.29020578 683.33635437 C-129.29504559 677.83034927 -129.29677909 672.32435673 -129.29574966 666.81834984 C-129.29422255 658.63032121 -129.29839135 650.44230229 -129.30362429 642.25427555 C-129.31328914 626.77770037 -129.31610821 611.30112851 -129.31668135 595.82455067 C-129.31714113 583.87078676 -129.31920071 571.91702414 -129.32238197 559.96326065 C-129.32327954 556.52068174 -129.32416935 553.07810283 -129.32505685 549.63552392 C-129.3252779 548.77965274 -129.32549895 547.92378157 -129.32572669 547.04197491 C-129.33187992 522.97148455 -129.33582736 498.90099464 -129.33538342 474.83050346 C-129.33536784 473.92320806 -129.33535226 473.01591265 -129.33533621 472.08112345 C-129.3352531 467.48272131 -129.33515406 462.88431917 -129.3350515 458.28591703 C-129.33503155 457.37268169 -129.33501161 456.45944635 -129.33499106 455.51853721 C-129.33495062 453.67175279 -129.33490882 451.82496836 -129.33486567 449.97818393 C-129.33425302 421.25045537 -129.34175785 392.52273861 -129.35543823 363.79501343 C-129.37080714 331.50831797 -129.37940396 299.22163027 -129.37847501 266.93493092 C-129.37840038 263.49046588 -129.37835167 260.04600084 -129.37832069 256.6015358 C-129.37830904 255.75344202 -129.37829739 254.90534825 -129.37828538 254.03155466 C-129.37825464 240.39832702 -129.38463371 226.76510964 -129.39325296 213.13188505 C-129.40174018 199.42372523 -129.40271103 185.71558039 -129.39614364 172.00741939 C-129.39245509 163.87009556 -129.39425953 155.73281733 -129.40408598 147.59549836 C-129.41081192 141.51003382 -129.40701374 135.42462268 -129.39921276 129.33915748 C-129.39767788 126.88427514 -129.39949345 124.42938784 -129.40507283 121.97451137 C-129.47291278 89.99764425 -124.38957012 58.87162401 -101.48556519 34.71688843 C-73.36738974 6.59871298 -38.35929287 -0.1166043 0 0 Z M-81.14962769 59.38095093 C-98.03513494 78.53991111 -98.60243136 101.30101104 -98.53730774 125.61433411 C-98.54148561 128.16103142 -98.5469656 130.70772688 -98.55362755 133.25441891 C-98.56503957 138.76967573 -98.56723223 144.28481444 -98.56107712 149.80007744 C-98.55194855 158.0017946 -98.56004799 166.20343367 -98.57136836 174.40514487 C-98.59099493 189.05765709 -98.59339044 203.71013387 -98.58817316 218.3626561 C-98.58360956 231.18621893 -98.58422318 244.00976777 -98.5900135 256.83333015 C-98.59077038 258.55587738 -98.59152636 260.27842461 -98.59228145 262.00097184 C-98.59342669 264.59693212 -98.59457657 267.1928924 -98.59574069 269.78885267 C-98.60643943 293.91079532 -98.6111773 318.03273332 -98.60327053 342.15467739 C-98.60297336 343.0632172 -98.60267618 343.97175701 -98.60237001 344.90782834 C-98.59992126 352.28503067 -98.59730958 359.66223294 -98.59468587 367.03943521 C-98.58458316 395.81516118 -98.59294186 424.5908288 -98.61618042 453.36654663 C-98.64226945 485.72398534 -98.65509672 518.08138893 -98.64799267 550.43883854 C-98.64727665 553.890811 -98.64660225 557.34278346 -98.64595222 560.79475594 C-98.64578242 561.64466959 -98.64561261 562.49458323 -98.64543765 563.37025184 C-98.64313769 576.18241449 -98.65109711 588.99454444 -98.6642437 601.80669975 C-98.6791724 616.38129248 -98.67997461 630.95580874 -98.66217279 645.53039985 C-98.65262909 653.67869975 -98.65400505 661.82682116 -98.67140748 669.97510903 C-98.68317503 676.07029195 -98.6738742 682.16525606 -98.6565851 688.26043356 C-98.65282595 690.71784503 -98.6557445 693.17527822 -98.66619676 695.63267034 C-98.73047202 711.90759209 -98.41507015 728.19060629 -90.33712769 742.81845093 C-89.99020874 743.47474487 -89.64328979 744.13103882 -89.28585815 744.80722046 C-78.99512558 763.89040004 -64.97634314 775.29992578 -44.69650269 782.37313843 C-36.51225313 784.69861903 -28.82032 785.67488462 -20.32068729 785.64101315 C-19.27142625 785.64481882 -18.2221652 785.64862449 -17.14110836 785.65254548 C-13.63177702 785.66283643 -10.12260818 785.65895964 -6.61326599 785.65510559 C-4.06904837 785.65955935 -1.52483214 785.66487384 1.01938206 785.67097431 C6.54784234 785.68218963 12.07625421 785.68718811 17.60472488 785.68665314 C25.82630463 785.68585846 34.04784288 785.6964247 42.26941151 785.70906871 C58.66586144 785.73378444 75.06230123 785.74258893 91.45876723 785.74760519 C92.73191902 785.74799696 92.73191902 785.74799696 94.03079104 785.74839664 C95.30655819 785.74878705 95.30655819 785.74878705 96.6080984 785.74918534 C106.04133153 785.75227001 115.47456186 785.75877565 124.90779305 785.76539803 C153.41147315 785.78504403 181.91515024 785.80144925 210.41883755 785.80427456 C211.33020588 785.80436862 212.24157421 785.80446268 213.18055976 785.80455959 C216.87378889 785.80493806 220.56701803 785.80530206 224.26024717 785.80566257 C227.03988198 785.80593429 229.8195168 785.80621097 232.59915161 785.80648804 C233.51765111 785.80657606 234.43615061 785.80666408 235.38248343 785.80675477 C264.2311035 785.8096591 293.07965652 785.83174626 321.92825317 785.86801147 C354.35451766 785.90877329 386.78073647 785.93243339 419.20702797 785.93273407 C422.66755522 785.93283089 426.12808245 785.93299761 429.5886097 785.93321419 C430.44065065 785.9332583 431.29269161 785.93330242 432.17055199 785.93334787 C445.85900238 785.9344659 459.5473854 785.95184826 473.23581413 785.97503351 C487.00453865 785.99792136 500.77317251 786.0020721 514.54190909 785.98748421 C522.71201917 785.97935722 530.88184291 785.98493634 539.05191802 786.01066506 C545.16713551 786.02836152 551.28205693 786.01964755 557.39726568 786.00101996 C559.8602795 785.99753601 562.32332329 786.00238817 564.78629785 786.0167244 C591.24160734 786.16070845 615.35871421 780.7293634 635.24099731 762.14657593 C650.40384519 746.3648363 656.20452528 725.87511878 656.10484791 704.36000443 C656.10805439 703.31429039 656.11126086 702.26857636 656.11456451 701.19117403 C656.12283025 697.7059752 656.11695219 694.22094976 656.11106873 690.73574829 C656.11409097 688.20416614 656.11798081 685.6725849 656.12266129 683.14100528 C656.1307967 677.64642555 656.13274451 672.15189791 656.12915802 666.6573143 C656.1238387 658.48631619 656.12995868 650.31535401 656.13824095 642.1443598 C656.15346588 626.69991429 656.15518756 611.2554852 656.15271793 595.81103376 C656.15088384 583.88258321 656.1526473 571.95413804 656.15694237 560.02568817 C656.15754477 558.31071205 656.15814597 556.59573594 656.15874597 554.88075982 C656.15965324 552.29630949 656.16056191 549.71185916 656.16147832 547.12740883 C656.16990568 523.10406968 656.17424507 499.08073254 656.1700716 475.05739212 C656.16991523 474.15211161 656.16975885 473.2468311 656.16959774 472.31411784 C656.16879198 467.7260139 656.16794621 463.13790996 656.16708443 458.54980603 C656.16691335 457.63862831 656.16674226 456.72745059 656.16656599 455.78866142 C656.16621933 453.94603942 656.1658708 452.10341741 656.1655204 450.26079541 C656.16016387 421.59315279 656.16809258 392.92554093 656.18655396 364.25790405 C656.20728165 332.03345113 656.21799518 299.80901726 656.21397847 267.58455729 C656.21358314 264.14686378 656.21322159 260.70917027 656.21288109 257.27147675 C656.21279036 256.42505912 656.21269962 255.5786415 656.21260614 254.70657486 C656.2114414 241.94309032 656.21807913 229.17962505 656.22869301 216.41614532 C656.24075587 201.8956039 656.24229147 187.37510486 656.22990284 172.85456279 C656.22328494 164.73498328 656.22488056 156.61550521 656.23849136 148.49593387 C656.24773443 142.4237529 656.24119254 136.35169453 656.22864356 130.27951512 C656.2259953 127.83007648 656.22836717 125.38062595 656.23637942 122.93119898 C656.31356325 97.5667563 653.40640103 75.03183547 635.24490356 55.75595093 C618.72358461 39.36938987 597.53774393 32.20281286 574.4987545 32.25231647 C573.4646644 32.25056344 572.43057429 32.2488104 571.36514813 32.24700424 C567.88945553 32.24234102 564.41380471 32.2448106 560.93811035 32.24723816 C558.4252054 32.24537035 555.91230074 32.24306976 553.39939654 32.24037284 C547.93022406 32.23552532 542.46106424 32.23380109 536.99188995 32.23482895 C528.85874324 32.23635373 520.72560632 32.23219241 512.5924615 32.22695432 C497.22063925 32.2172809 481.84882033 32.21447008 466.47699539 32.21389727 C454.60513243 32.21343777 442.73327077 32.21137967 430.86140823 32.20819664 C427.44439368 32.2072991 424.02737912 32.20640928 420.61036456 32.20552176 C419.76088522 32.20530071 418.91140588 32.20507967 418.03618474 32.20485192 C394.13966983 32.19869716 370.24315537 32.19475141 346.34663963 32.1951952 C344.99505742 32.19521857 344.99505742 32.19521857 343.61617052 32.19524241 C339.04923476 32.19532551 334.482299 32.19542456 329.91536324 32.19552711 C328.55484636 32.19555703 328.55484636 32.19555703 327.16684429 32.19558755 C325.33264551 32.19562799 323.49844673 32.19566979 321.66424795 32.19571295 C293.1317205 32.1963256 264.59920495 32.18882115 236.06668091 32.17514038 C204.01076366 32.15977655 171.95485422 32.15117435 139.89893305 32.1521036 C136.48003236 32.15217823 133.06113168 32.15222694 129.64223099 32.15225792 C128.3795013 32.1522754 128.3795013 32.1522754 127.09126192 32.15229324 C113.54933037 32.152324 100.00740915 32.14594046 86.46548066 32.13732565 C72.8522242 32.12884468 59.23898284 32.1278627 45.62572519 32.13443498 C37.54110866 32.13812777 29.456538 32.13630636 21.37192634 32.12649264 C15.33090146 32.11978 9.28993054 32.12355343 3.24890502 32.13136586 C0.80811819 32.13290392 -1.63267361 32.13107318 -4.07345457 32.12550578 C-33.96947249 32.06183763 -59.50291734 36.99013492 -81.14962769 59.38095093 Z " fill="#525253" transform="translate(233.14962768554688,102.61904907226563)"/>
<path d="M0 0 C37.66787346 -1.31049078 72.99457742 12.6785522 100.72607422 37.75390625 C126.297191 61.63430383 142.24907584 96.65554189 143.47265625 131.67578125 C143.78413213 150.39409315 141.46564244 168.49783611 135.26953125 186.1953125 C135.05458008 186.82453613 134.83962891 187.45375977 134.61816406 188.10205078 C122.85869712 221.91271545 96.33132583 249.60065995 64.359375 265.13671875 C31.28743042 280.53516645 -6.42269066 282.75965414 -41.01098633 270.89331055 C-60.0043527 263.83509473 -76.06164969 253.03840334 -90.73046875 239.1953125 C-91.4678125 238.52242187 -92.20515625 237.84953125 -92.96484375 237.15625 C-116.04697633 215.30189043 -131.39619953 181.24889181 -132.85302734 149.52661133 C-133.3943703 129.13766717 -131.76745217 110.39261502 -124.73046875 91.1953125 C-124.4778125 90.50195801 -124.22515625 89.80860352 -123.96484375 89.09423828 C-118.25994521 73.73785391 -110.565504 60.52679493 -99.73046875 48.1953125 C-99.034375 47.36644531 -98.33828125 46.53757812 -97.62109375 45.68359375 C-76.30835319 20.90947744 -45.76195018 5.95386961 -13.73046875 1.1953125 C-12.87710938 1.06382812 -12.02375 0.93234375 -11.14453125 0.796875 C-7.43849727 0.32887753 -3.72916873 0.19524444 0 0 Z " fill="#FCFCFC" transform="translate(506.73046875,240.8046875)"/>
<path d="M0 0 C0.86955322 0.55840576 1.73910645 1.11681152 2.63500977 1.69213867 C3.62525146 2.31282227 4.61549316 2.93350586 5.63574219 3.57299805 C6.68866455 4.24524414 7.74158691 4.91749023 8.82641602 5.61010742 C51.13852062 31.72434409 97.51338936 42.93158465 146.70141602 31.67260742 C167.35233563 26.60148973 187.52524939 18.68355136 205.13110352 6.61401367 C205.88286865 6.1007251 206.63463379 5.58743652 207.40917969 5.05859375 C208.80341848 4.08653744 210.18058354 3.08926565 211.53466797 2.06201172 C216.1312902 -1.19070037 219.32489568 -1.65828854 224.87792969 -0.7668457 C228.84693539 0.12536054 232.63269023 1.27313686 236.45141602 2.67260742 C237.29937744 2.9794043 238.14733887 3.28620117 239.02099609 3.60229492 C265.92166412 13.55129142 291.1121679 26.58778135 313.38891602 44.79760742 C314.00299316 45.2988916 314.61707031 45.80017578 315.24975586 46.31665039 C326.80447295 55.8314122 337.11652851 66.01528054 346.38891602 77.79760742 C347.54133789 79.20719727 347.54133789 79.20719727 348.71704102 80.64526367 C360.66858966 95.58469947 370.13805522 111.92127063 377.45727539 129.5769043 C378.28930716 131.56017498 379.16277446 133.51548496 380.06079102 135.46948242 C388.57198279 154.86096059 391.61989303 176.93786805 394.38891602 197.79760742 C394.56471191 199.08135254 394.74050781 200.36509766 394.92163086 201.68774414 C395.65306709 208.43380291 395.5945367 215.21082958 395.62719727 221.98901367 C395.63127279 222.71100386 395.63534832 223.43299404 395.63954735 224.17686272 C395.66029447 228.00136896 395.67464269 231.82584057 395.68408203 235.65039062 C395.6951022 239.55102631 395.72948362 243.45108469 395.76925373 247.35151768 C395.79570265 250.39490134 395.80379868 253.43815336 395.80736351 256.48164177 C395.8121596 257.91703106 395.82356691 259.35241739 395.8424015 260.78769112 C396.08162106 280.23006228 391.19275121 298.54598657 377.42651367 312.81323242 C376.09199365 314.15275746 374.74105844 315.475873 373.38891602 316.79760742 C372.82817383 317.39057617 372.26743164 317.98354492 371.68969727 318.59448242 C368.00705517 322.19013297 363.53561933 324.53543743 359.01391602 326.92260742 C358.42070557 327.24777344 357.82749512 327.57293945 357.21630859 327.90795898 C343.7349662 334.67185312 328.96084801 335.38486815 314.20320129 335.29881287 C312.32584342 335.30271501 310.44848851 335.30836273 308.57114047 335.31558377 C303.4601562 335.33022469 298.3494836 335.32022541 293.23850977 335.30584705 C287.70814031 335.29467621 282.17781241 335.30669987 276.64744568 335.31568909 C265.83318709 335.32958129 255.01904572 335.32209551 244.20479278 335.3070135 C231.599855 335.29010672 218.99494604 335.29336948 206.39000043 335.29710758 C183.21642081 335.30315579 160.0429011 335.2874125 136.86934084 335.26191995 C115.73986002 335.23879916 94.61044765 335.23342113 73.48095703 335.24365234 C68.06753702 335.24625462 62.65411701 335.24883971 57.24069691 335.25125027 C56.57412063 335.25154771 55.90754435 335.25184516 55.2207688 335.25215162 C37.53241712 335.25977483 19.84407025 335.25328789 2.15572089 335.24255425 C-0.38089486 335.24102848 -2.91751061 335.23950812 -5.45412636 335.23799324 C-6.70204766 335.23723543 -7.94996896 335.23647761 -9.23570606 335.23569683 C-18.01431717 335.23096146 -26.79291279 335.23280009 -35.57152367 335.23705864 C-46.27266948 335.2419931 -56.97374461 335.2359659 -67.67487427 335.21616434 C-73.13080364 335.20631609 -78.58662553 335.20116063 -84.04256058 335.20905685 C-89.04315593 335.21614587 -94.04353502 335.20923407 -99.04410199 335.19145323 C-100.84665328 335.18742962 -102.64922448 335.18837323 -104.45176818 335.19497209 C-126.34522733 335.26822098 -144.74615543 330.9714492 -161.11889648 315.41479492 C-175.68116829 300.06270498 -180.43340569 282.46068355 -180.20483398 261.94604492 C-180.20311477 260.2728382 -180.20319674 258.5996288 -180.20495605 256.92642212 C-180.20331668 253.44197318 -180.18488908 249.95817829 -180.15307617 246.47387695 C-180.11358411 242.07668922 -180.10929304 237.68035259 -180.11614227 233.28302193 C-180.1351996 215.24770057 -179.89946082 197.58937545 -176.61108398 179.79760742 C-176.40290039 178.53190918 -176.1947168 177.26621094 -175.98022461 175.9621582 C-169.14275462 135.79486149 -150.38199246 100.81625775 -123.91479492 70.30102539 C-122.72697076 68.93124615 -121.54747323 67.55425757 -120.36889648 66.17651367 C-93.8426215 35.81218791 -57.47606671 15.66260595 -19.78930664 2.55639648 C-18.27897177 2.03026773 -16.77368552 1.48950634 -15.27270508 0.93725586 C-14.5013623 0.66171875 -13.73001953 0.38618164 -12.93530273 0.10229492 C-12.24911865 -0.14794434 -11.56293457 -0.39818359 -10.85595703 -0.65600586 C-6.86017549 -1.62855171 -3.77255997 -1.73724711 0 0 Z M-86.61108398 76.79760742 C-88.33911337 78.31973285 -90.06828293 79.84056484 -91.79858398 81.36010742 C-96.1090814 85.25561906 -99.94836035 89.29253256 -103.61108398 93.79760742 C-104.01439941 94.2885791 -104.41771484 94.77955078 -104.83325195 95.28540039 C-120.94237827 114.97302462 -133.17562774 136.39381033 -140.61108398 160.79760742 C-140.85197754 161.58103516 -141.09287109 162.36446289 -141.34106445 163.17163086 C-148.1956625 185.93783922 -149.10773082 208.68030879 -149.00219727 232.27807617 C-148.98495593 236.1730792 -148.99508751 240.06746839 -149.01291466 243.96245003 C-149.02382879 247.01340248 -149.02027408 250.06421246 -149.01253128 253.11516953 C-149.01055814 254.55103508 -149.01288445 255.9869144 -149.01996994 257.42276382 C-149.06952513 270.25413489 -148.21818959 281.45637897 -139.36108398 291.29760742 C-126.54207088 302.9512557 -115.18550352 303.22448785 -98.48608398 302.98510742 C-96.65276163 302.97003502 -94.81942731 302.95635114 -92.98608398 302.9440918 C-88.52745142 302.91128465 -84.06940175 302.85964338 -79.61108398 302.79760742 C-79.60743835 301.77110077 -79.60379272 300.74459412 -79.60003662 299.6869812 C-79.56306933 290.0054383 -79.50527765 280.32421296 -79.42718124 270.64291191 C-79.3876994 265.66581798 -79.35551435 260.68890116 -79.34008789 255.71166992 C-79.32492601 250.90687118 -79.2904887 246.10255934 -79.24277496 241.29797745 C-79.22795635 239.46644451 -79.22004269 237.63484205 -79.21920013 235.80324936 C-79.21683015 233.23427383 -79.18974908 230.66664353 -79.15698242 228.09790039 C-79.16452797 226.96609093 -79.16452797 226.96609093 -79.17222595 225.81141663 C-79.0532552 219.76896844 -76.95846796 216.31887169 -72.92358398 211.98510742 C-67.90751489 209.40928816 -63.13870034 209.34683538 -57.79858398 210.92260742 C-53.44153346 213.48557832 -51.20801802 216.00680531 -49.61108398 220.79760742 C-49.28108398 247.85760742 -48.95108398 274.91760742 -48.61108398 302.79760742 C54.34891602 302.79760742 157.30891602 302.79760742 263.38891602 302.79760742 C263.71891602 275.73760742 264.04891602 248.67760742 264.38891602 220.79760742 C269.26770389 212.25972863 269.26770389 212.25972863 274.38891602 209.79760742 C280.00334242 209.0731653 283.59425866 209.95358767 288.62719727 212.43432617 C291.06368817 214.31977036 292.04040255 216.00695611 293.38891602 218.79760742 C293.68688328 221.63003538 293.82658264 224.2451679 293.82128906 227.07617188 C293.83148071 227.89620193 293.84167236 228.71623199 293.85217285 229.56111145 C293.88227347 232.26110696 293.89156424 234.9607475 293.90063477 237.66088867 C293.91748364 239.53705522 293.93563416 241.41321049 293.95503235 243.28935242 C294.00251587 248.21957883 294.03233593 253.14975952 294.05847168 258.08013916 C294.08828547 263.11430896 294.13481301 268.14832127 294.17993164 273.18237305 C294.26594604 283.05403543 294.33329967 292.92573025 294.38891602 302.79760742 C299.47514723 302.87239366 304.56105043 302.92650668 309.64770508 302.96240234 C311.37399886 302.97738418 313.10025527 302.99777681 314.82641602 303.02392578 C329.65322361 303.24272416 342.67153647 302.13631975 354.13891602 291.61010742 C360.35561483 285.03197263 363.50662463 276.9755671 363.53417969 268.04150391 C363.5375383 267.35796844 363.54089691 266.67443298 363.5443573 265.97018433 C363.55387533 263.70300484 363.55581226 261.43589943 363.55688477 259.16870117 C363.56010182 257.57943187 363.56346623 255.99016286 363.56697083 254.40089417 C363.57296777 251.05762041 363.57481065 247.7143725 363.57421875 244.37109375 C363.57411825 240.13885506 363.58764993 235.90678843 363.60499096 231.67459011 C363.61626504 228.38234235 363.61813315 225.09013379 363.61760902 221.79786873 C363.61877076 220.24135825 363.62308765 218.68484612 363.63094139 217.12835503 C363.70137522 201.69861354 362.50116005 186.50466894 358.76391602 171.48510742 C358.50376709 170.43097656 358.24361816 169.3768457 357.97558594 168.29077148 C350.30153967 138.36851543 335.724078 110.54869497 314.01342773 88.45727539 C312.2770679 86.68333879 310.56978885 84.88379289 308.86157227 83.08276367 C287.81656777 61.16181387 261.31655764 45.45745863 232.82641602 35.11010742 C232.1302417 34.85382568 231.43406738 34.59754395 230.71679688 34.33349609 C225.61811266 32.58092279 223.37446453 32.83609959 218.60595703 35.14526367 C217.54562256 35.71116211 216.48528809 36.27706055 215.39282227 36.86010742 C214.19283627 37.49478068 212.99263198 38.12904133 211.79223633 38.76293945 C210.85232849 39.26159515 210.85232849 39.26159515 209.89343262 39.77032471 C183.09677411 53.945149 158.49891327 62.72568941 128.38891602 66.79760742 C127.67002197 66.90435791 126.95112793 67.0111084 126.21044922 67.12109375 C89.09800545 72.39069475 51.62258307 62.72219136 18.45141602 46.79760742 C17.84053131 46.50459747 17.22964661 46.21158752 16.60025024 45.90969849 C9.11402343 42.29994118 1.89005273 38.44297217 -5.1875 34.08276367 C-23.9673864 24.12433494 -73.48750846 64.51722703 -86.61108398 76.79760742 Z " fill="#525353" transform="translate(404.611083984375,540.202392578125)"/>
<path d="M0 0 C0.77811035 0.16628906 1.5562207 0.33257812 2.35791016 0.50390625 C47.03759165 10.40217415 85.08290227 37.82112735 110 76 C122.92470896 96.40018751 130.18215746 118.26615081 134 142 C134.26018921 143.36753418 134.26018921 143.36753418 134.52563477 144.76269531 C135.05730355 148.39106799 135.17938758 151.95093084 135.203125 155.609375 C135.21013931 156.32925598 135.21715363 157.04913696 135.22438049 157.79083252 C135.24184679 160.11061888 135.24823583 162.43015023 135.25 164.75 C135.25067474 165.54100098 135.25134949 166.33200195 135.25204468 167.14697266 C135.23632839 178.71650696 134.77667192 189.72386975 132 201 C131.83371094 201.73959961 131.66742187 202.47919922 131.49609375 203.24121094 C121.61692934 247.16690308 94.74854271 286.88115628 56.63525391 311.15966797 C32.44130717 326.17569929 4.70198793 336.92523305 -24.1015625 337.23828125 C-25.227118 337.25310799 -25.227118 337.25310799 -26.37541199 337.26823425 C-42.91592609 337.44114797 -58.93642214 337.44298884 -75 333 C-76.41780762 332.61328125 -76.41780762 332.61328125 -77.86425781 332.21875 C-110.14018835 323.10256694 -141.74641886 304.30751127 -163 278 C-163.78246094 277.03191406 -164.56492187 276.06382812 -165.37109375 275.06640625 C-171.20154353 267.72958882 -176.31429426 260.12884578 -181 252 C-181.65742188 250.88496094 -182.31484375 249.76992188 -182.9921875 248.62109375 C-204.40025391 211.25457083 -209.30328163 162.92789142 -198.10107422 121.51269531 C-185.66772352 78.48510774 -157.72106187 40.92477225 -118.4609375 18.81640625 C-82.13352852 -0.97485934 -40.85240066 -8.84424442 0 0 Z M-124 61 C-124.80824219 61.67417969 -125.61648438 62.34835937 -126.44921875 63.04296875 C-151.31349031 84.47230169 -166.08715367 114.87210566 -171 147 C-171.18175781 148.06089844 -171.36351562 149.12179687 -171.55078125 150.21484375 C-175.93794276 187.18144811 -164.79438034 223.21721552 -142.88671875 252.859375 C-119.24916703 282.76282251 -86.62410468 300.76328809 -48.89160156 305.6953125 C-13.81005579 309.39184823 22.3417127 299.05819565 50.12890625 277.37890625 C79.86907224 252.73705443 99.40488287 220.16416869 103.53320312 181.42919922 C106.79183794 144.66665334 97.11109953 106.79077911 73.27416992 78.10888672 C63.46858905 66.68476808 52.68077501 57.1298886 40 49 C38.53433594 48.05833984 38.53433594 48.05833984 37.0390625 47.09765625 C29.38333402 42.40775288 21.40352776 39.05663841 13 36 C12.02160156 35.63003906 11.04320312 35.26007813 10.03515625 34.87890625 C-35.90906982 19.02969001 -87.37915565 29.72349114 -124 61 Z " fill="#525253" transform="translate(546,213)"/>
<path d="M0 0 C0.33 0 0.66 0 1 0 C1.02312297 10.93496471 1.04091485 21.86992366 1.05181217 32.8049078 C1.0570411 37.88191018 1.06413892 42.95889589 1.07543945 48.03588867 C1.08626799 52.93120552 1.09227676 57.82650629 1.09487724 62.72183418 C1.09673155 64.59382951 1.10035228 66.46582391 1.10573006 68.33781242 C1.11294004 70.95040699 1.11399096 73.56293427 1.11352539 76.17553711 C1.11712067 76.95740387 1.12071594 77.73927063 1.12442017 78.54483032 C1.11405216 83.88594784 1.11405216 83.88594784 0 85 C-1.66810152 85.09721248 -3.34035321 85.1237154 -5.01128483 85.12304783 C-6.10357869 85.12503888 -7.19587256 85.12702993 -8.32126623 85.12908131 C-10.1436972 85.12471205 -10.1436972 85.12471205 -12.00294495 85.12025452 C-13.28195126 85.12110894 -14.56095757 85.12196337 -15.87872165 85.12284368 C-19.44516609 85.12509105 -23.01158077 85.12106408 -26.57802141 85.11606562 C-30.41784885 85.11176475 -34.25767449 85.11320728 -38.09750366 85.1139679 C-44.75569115 85.11449336 -51.41386888 85.1113442 -58.07205391 85.10573006 C-67.6987836 85.09761812 -77.32550855 85.09500015 -86.95224129 85.09374207 C-102.56931914 85.09155106 -118.18639178 85.08488967 -133.8034668 85.07543945 C-148.9779457 85.06626658 -164.15242319 85.05918514 -179.3269043 85.05493164 C-180.26157119 85.05466892 -181.19623808 85.05440619 -182.15922821 85.05413551 C-186.84797187 85.05283051 -191.53671554 85.05156679 -196.22545922 85.05032361 C-235.15030979 85.03994949 -274.07515455 85.02232986 -313 85 C-311 83 -311 83 -308.76387393 82.75160301 C-307.82292696 82.75236245 -306.88197998 82.75312189 -305.91251945 82.75390434 C-304.82868473 82.74992225 -303.74485 82.74594015 -302.6281718 82.74183738 C-300.82761937 82.75057591 -300.82761937 82.75057591 -298.99069214 82.75949097 C-297.72308206 82.75778212 -296.45547198 82.75607327 -295.14944947 82.75431263 C-291.619435 82.74982364 -288.08954104 82.75786394 -284.55954194 82.76786876 C-280.75722386 82.77647873 -276.95491297 82.77358484 -273.15258789 82.77206421 C-266.56097672 82.7710138 -259.96940504 82.77730666 -253.3778038 82.78853989 C-243.84737566 82.80477083 -234.31696668 82.81000042 -224.78652622 82.81251587 C-209.32528399 82.81689676 -193.86406282 82.83021653 -178.40283203 82.84912109 C-163.38069769 82.86746971 -148.35856906 82.88163119 -133.33642578 82.89013672 C-132.4109826 82.89066217 -131.48553942 82.89118761 -130.5320525 82.89172898 C-125.88953172 82.89433899 -121.24701089 82.89686642 -116.60449004 82.89935279 C-78.06964528 82.92009755 -39.53482403 82.95533378 -1 83 C-1.00222061 81.97491837 -1.00444122 80.94983673 -1.00672913 79.89369202 C-1.02696041 70.2549304 -1.04197207 60.61617306 -1.05181217 50.97739506 C-1.05704103 46.02146078 -1.06413874 41.06554358 -1.07543945 36.10961914 C-1.08626822 31.33101164 -1.09227681 26.55242062 -1.09487724 21.7738018 C-1.09673151 19.94646381 -1.10035216 18.11912676 -1.10573006 16.29179573 C-1.11294036 13.74146671 -1.11399095 11.19120663 -1.11352539 8.64086914 C-1.11712067 7.87770386 -1.12071594 7.11453857 -1.12442017 6.32824707 C-1.11405216 1.11405216 -1.11405216 1.11405216 0 0 Z " fill="#464647" transform="translate(669,760)"/>
<path d="M0 0 C0.66 0.33 1.32 0.66 2 1 C0.10730953 2.91985828 -1.78899017 4.83591037 -3.6875 6.75 C-4.21794922 7.28882813 -4.74839844 7.82765625 -5.29492188 8.3828125 C-8.37931499 11.48612827 -11.51576273 14.33672402 -15 17 C-15.66 16.67 -16.32 16.34 -17 16 C-11.5184171 10.41915303 -6.03331362 4.98404168 0 0 Z " fill="#424344" transform="translate(302,589)"/>
<path d="M0 0 C0 3.57821008 -0.49416385 3.87795979 -2.921875 6.3203125 C-3.53546875 6.93777344 -4.1490625 7.55523437 -4.78125 8.19140625 C-5.4309375 8.82949219 -6.080625 9.46757812 -6.75 10.125 C-7.70132813 11.09373047 -7.70132813 11.09373047 -8.671875 12.08203125 C-9.290625 12.69691406 -9.909375 13.31179688 -10.546875 13.9453125 C-11.11245117 14.50750488 -11.67802734 15.06969727 -12.26074219 15.64892578 C-14.17329029 17.13461377 -15.63392449 17.59011336 -18 18 C-14.65348519 13.7122779 -11.07466717 10.20568225 -6.9375 6.6796875 C-4.49654333 4.56353555 -2.24804455 2.31829594 0 0 Z " fill="#343536" transform="translate(614,473)"/>
<path d="M0 0 C0.66 0.99 1.32 1.98 2 3 C1.125 6.1875 1.125 6.1875 0 9 C-0.66 9 -1.32 9 -2 9 C-1.125 1.125 -1.125 1.125 0 0 Z " fill="#444445" transform="translate(110,175)"/>
<path d="M0 0 C-1.0625 1.5 -1.0625 1.5 -3 3 C-6.6875 3.1875 -6.6875 3.1875 -10 3 C-6.88378718 -0.11621282 -4.21175599 -0.11383124 0 0 Z " fill="#3F4041" transform="translate(398,540)"/>
<path d="M0 0 C0.99 0.33 1.98 0.66 3 1 C0.03 3.475 0.03 3.475 -3 6 C-3.66 5.67 -4.32 5.34 -5 5 C-3.35 3.35 -1.7 1.7 0 0 Z " fill="#434444" transform="translate(601,485)"/>
</svg>
